<svg width="317" height="306" viewBox="0 0 317 306" fill="none" xmlns="http://www.w3.org/2000/svg">
<g clip-path="url(#clip0)">
<path d="M189.5 100.3H183.7H166.5L178.6 112.4L182.7 116.5L201.6 135.4V118.2L199.9 116.5L195.8 112.4H201.6V100.3H189.5Z" fill="url(#paint0_linear)"/>
<path d="M259.302 114.4C261.102 110.7 262.402 106.8 263.002 102.7C256.902 101.1 250.602 100.3 244.202 100.3H205.602V116.5H205.702L217.802 128.6V112.4H244.202C249.302 112.4 254.402 113.1 259.302 114.4V114.4Z" fill="url(#paint1_linear)"/>
<path d="M129.598 216.8H135.398H152.598L140.398 204.7L136.298 200.6L117.498 181.8V198.9L119.098 200.6L123.198 204.7H117.498H117.398L117.498 204.8V216.8H129.598Z" fill="url(#paint2_linear)"/>
<path d="M306.201 158.6C306.201 138.8 297.201 122 282.201 111.6C281.001 110.8 279.801 110 278.601 109.3C274.901 107.1 271.001 105.3 267.001 104C266.301 108.1 265.001 112 263.201 115.8C262.701 117.1 262.001 118.3 261.301 119.5C258.801 123.9 255.701 127.9 252.101 131.4L236.301 147.2L244.901 155.8L260.701 140C265.201 135.6 269.001 130.6 272.201 125.1C272.901 123.9 273.601 122.7 274.201 121.5C275.301 122.3 276.401 123.1 277.401 124C287.101 132.4 292.601 144.7 292.601 158.7C292.601 172.7 287.201 185 277.501 193.4C279.501 197.3 281.101 201.4 282.301 205.6C297.201 194.9 306.201 178.1 306.201 158.6V158.6Z" fill="url(#paint3_linear)"/>
<path d="M217.799 188.5V182.7V165.5L205.699 177.6L201.599 181.7L182.699 200.6H199.899L201.599 198.9L205.699 194.8V200.6H217.799V188.5Z" fill="url(#paint4_linear)"/>
<path d="M113.399 73.8002C113.399 68.7002 113.999 63.7002 115.299 58.8002C111.599 57.0002 107.699 55.8002 103.599 55.2002C101.999 61.3002 101.199 67.6002 101.199 73.8002V112.4H117.399V112.3L129.499 100.2H113.299L113.399 73.8002V73.8002Z" fill="url(#paint5_linear)"/>
<path d="M101.302 200.6V204.7H74.8016C69.7016 204.7 64.7016 204.1 59.8016 202.7C58.0016 206.4 56.7016 210.4 56.1016 214.4C62.2016 216 68.5016 216.8 74.8016 216.8H113.402V200.6L101.302 188.5V200.6V200.6Z" fill="url(#paint6_linear)"/>
<path d="M217.799 157.4V151.6L221.899 155.7V155.6L230.399 147L205.699 122.3V139.4V145.3V171.9L217.799 159.7V157.4Z" fill="url(#paint7_linear)"/>
<path d="M205.702 243.3C205.702 248.4 205.102 253.4 203.702 258.3C207.402 260.1 211.402 261.4 215.502 262C217.102 255.9 217.902 249.6 217.902 243.3V204.7H201.702V204.8L189.602 216.9H205.802L205.702 243.3V243.3Z" fill="url(#paint8_linear)"/>
<path d="M139.499 96.1996L135.399 100.3L123.199 112.4H140.399H146.199H172.899L160.699 100.3H158.299H152.499L156.599 96.1996H156.699H156.599L148.099 87.5996L139.499 96.1996Z" fill="url(#paint9_linear)"/>
<path d="M178.2 57.5004L162.5 73.3004L159.6 76.2004L151 84.8004L159.6 93.4004L162.4 96.2004L162.5 96.3004V96.2004H179.5L171.1 87.7004L168.2 84.8004L171.1 81.9004L186.8 66.0004C190.4 62.4004 194.4 59.3004 198.8 56.8004C197.5 52.9004 195.5 49.2004 193.1 45.9004C187.6 49.1004 182.6 53.0004 178.2 57.5004V57.5004Z" fill="url(#paint10_linear)"/>
<path d="M140.798 259.7L159.498 241L168.098 232.4L159.498 223.8L156.598 220.9H139.398L147.998 229.5L149.598 231.1L150.998 232.4L148.098 235.3L132.298 251.1C128.698 254.7 124.698 257.8 120.398 260.3C121.698 264.2 123.698 267.9 126.098 271.2C131.398 268 136.398 264.1 140.798 259.7V259.7Z" fill="url(#paint11_linear)"/>
<path d="M230.401 170.1L233.301 167.2L236.201 170.1L252.001 185.9C255.601 189.5 258.701 193.5 261.201 197.9C265.101 196.6 268.701 194.7 272.001 192.2C268.901 186.8 265.001 181.8 260.501 177.3L233.301 150L224.701 158.6L223.301 159.9L221.801 161.4V178.5L230.401 170.1V170.1Z" fill="url(#paint12_linear)"/>
<path d="M88.6 147.1L85.7 150L82.8 147.1L67 131.3C63.4 127.7 60.3 123.7 57.8 119.4C53.9 120.7 50.3 122.7 47 125.1C50.2 130.5 54 135.5 58.5 139.9L74.3 155.7L76.5 157.9L77.2 158.6L85.8 167.2L94.4 158.6L97.2 155.7V138.7L88.6 147.1V147.1Z" fill="url(#paint13_linear)"/>
<path d="M119.101 116.5L117.501 118.2L113.401 122.3V116.5H113.301H101.301V128.6V134.4V151.6L136.301 116.5H119.101Z" fill="url(#paint14_linear)"/>
<path d="M179.599 220.9L183.699 216.8L195.799 204.7H178.599H172.799H146.199L158.399 216.8H160.599H166.499L162.399 220.9H162.499L170.999 229.5L179.599 220.9Z" fill="url(#paint15_linear)"/>
<path d="M52.1016 213.3C52.8016 209.2 54.0016 205.2 55.9016 201.5C56.4016 200.3 57.1016 199.1 57.8016 197.9C60.4016 193.5 63.5016 189.5 67.1016 185.9L82.9016 170.2L74.3016 161.6L58.5016 177.4C54.0016 181.8 50.2016 186.8 47.0016 192.2C46.3016 193.4 45.7016 194.6 45.1016 195.9C44.0016 195.1 42.9016 194.2 41.8016 193.3C32.1016 184.9 26.7016 172.6 26.7016 158.7C26.7016 144.6 32.1016 132.3 41.8016 124C39.8016 120.1 38.2016 116 37.0016 111.8C22.0016 122.3 13.1016 139.3 13.1016 158.8C13.1016 178.5 22.1016 195.4 37.1016 205.9C38.3016 206.7 39.5016 207.5 40.7016 208.2C44.2016 210.1 48.0016 211.9 52.1016 213.3V213.3Z" fill="url(#paint16_linear)"/>
<path d="M202.501 54.8999C203.001 56.1999 203.401 57.4999 203.701 58.7999C205.001 63.6999 205.701 68.6999 205.601 73.7999V96.1998H217.801V73.7999C217.801 67.4999 217.001 61.1998 215.401 55.0998C215.101 53.7998 214.601 52.3999 214.201 51.0999C215.601 50.8999 217.001 50.6999 218.401 50.5999C231.101 49.6999 243.701 54.4999 253.501 64.3999C263.301 74.2999 268.301 86.8998 267.401 99.5998C271.601 100.9 275.601 102.7 279.501 104.8C282.701 86.7999 277.001 68.4999 263.201 54.6999C249.401 40.8999 231.101 35.1999 213.101 38.3999C211.701 38.5999 210.201 38.8999 208.801 39.2999C204.701 40.3999 200.601 41.8999 196.801 43.7999C199.201 47.2999 201.101 50.9999 202.501 54.8999V54.8999Z" fill="url(#paint17_linear)"/>
<path d="M116.499 262.2C115.999 260.9 115.599 259.6 115.299 258.3C113.999 253.4 113.299 248.4 113.399 243.3V221H101.299V243.3C101.299 249.6 102.099 255.9 103.699 262C103.999 263.4 104.499 264.7 104.899 266C103.499 266.2 102.099 266.4 100.699 266.5C87.9993 267.4 75.3993 262.6 65.4993 252.7C55.6993 242.9 50.6993 230.2 51.5993 217.5C47.3993 216.1 43.3993 214.4 39.4993 212.2C36.3993 230.2 41.9993 248.5 55.7993 262.3C69.5993 276.1 87.9993 281.8 105.899 278.7C107.399 278.4 108.799 278.1 110.199 277.7C114.299 276.7 118.299 275.2 122.099 273.3C119.799 269.8 117.899 266.1 116.499 262.2V262.2Z" fill="url(#paint18_linear)"/>
<path d="M278.602 207.9C277.602 203.8 276.102 199.7 274.202 195.9C270.802 198.3 267.202 200.2 263.302 201.6C262.002 202.1 260.702 202.5 259.302 202.8C254.402 204.1 249.402 204.8 244.302 204.7H222.002V216.8H244.302C250.602 216.8 256.902 216 262.902 214.4C264.302 214.1 265.602 213.7 266.902 213.2C267.202 214.6 267.302 216 267.402 217.4C268.302 230.1 263.502 242.7 253.602 252.6C243.702 262.5 231.202 267.2 218.402 266.4C217.102 270.7 215.302 274.8 213.102 278.6C231.102 281.8 249.302 276.1 263.202 262.2C277.102 248.3 282.702 230.1 279.502 212.1L278.602 207.9V207.9Z" fill="url(#paint19_linear)"/>
<path d="M40.3994 109.3C41.4994 113.4 42.9994 117.5 44.8994 121.3C48.2994 118.9 51.8994 117 55.7994 115.6C57.0994 115.1 58.3994 114.7 59.7994 114.3C64.6994 113 69.6994 112.4 74.7994 112.4H97.0994V100.2H74.7994C68.4994 100.2 62.2994 101 56.1994 102.6C54.7994 102.9 53.4994 103.4 52.0994 103.8C51.7994 102.4 51.6994 101 51.5994 99.5002C50.6994 86.8002 55.5994 74.3002 65.4994 64.3002C75.3994 54.3002 87.8994 49.7002 100.599 50.5002C101.899 46.2002 103.699 42.1002 105.999 38.3002C87.9994 35.3002 69.6994 40.9002 55.7994 54.8002C41.8994 68.7002 36.3994 86.9002 39.4994 104.9C39.7994 106.4 40.0994 107.8 40.3994 109.3V109.3Z" fill="url(#paint20_linear)"/>
<path d="M202.402 262.2C201.102 261.6 199.902 261 198.702 260.3C194.302 257.8 190.302 254.7 186.702 251.1L171.002 235.3L162.402 243.9L178.202 259.7C182.602 264.2 187.602 268 193.102 271.2C194.302 271.9 195.502 272.6 196.802 273.2C196.002 274.3 195.102 275.4 194.202 276.4C185.802 286.1 173.502 291.5 159.602 291.5C145.502 291.5 133.202 286.1 124.802 276.4C120.902 278.4 116.902 280 112.602 281.2C123.102 296.2 140.002 305.1 159.502 305.1C179.202 305.1 196.002 296.1 206.502 281.2C207.302 280 208.102 278.8 208.802 277.6C211.002 273.9 212.902 269.9 214.202 265.8C210.202 265.2 206.202 264 202.402 262.2V262.2Z" fill="url(#paint21_linear)"/>
<path d="M113.402 177.6V171.9V145.3L101.302 157.4V159.7V165.5L97.2016 161.5L97.1016 161.4V161.5L88.6016 170L97.1016 178.6L101.302 182.7L113.402 194.8V177.6Z" fill="url(#paint22_linear)"/>
<path d="M116.601 54.9004C117.901 55.5004 119.101 56.1004 120.301 56.8004C124.701 59.3004 128.701 62.4004 132.201 66.0004L148.001 81.8004L156.601 73.2004L140.901 57.4004C136.501 52.9004 131.501 49.1004 126.101 45.9004C124.901 45.2004 123.701 44.5004 122.401 43.9004C123.201 42.8004 124.101 41.7004 125.001 40.6004C133.401 31.0004 145.701 25.5004 159.601 25.5004C173.701 25.5004 186.001 31.0004 194.301 40.6004C198.201 38.6004 202.301 36.9004 206.501 35.8004C195.901 20.8004 179.001 11.9004 159.501 11.9004C139.701 11.9004 122.901 20.9004 112.501 35.8004C111.701 37.0004 110.901 38.2004 110.201 39.4004C108.001 43.1004 106.201 47.1004 104.801 51.2004C108.901 51.9004 112.801 53.2004 116.601 54.9004V54.9004Z" fill="url(#paint23_linear)"/>
<path d="M155.601 135.2H141.301V181.8H155.601C168.701 181.8 177.701 172.8 177.701 158.5C177.701 144.2 168.701 135.2 155.601 135.2V135.2Z" fill="url(#paint24_linear)"/>
</g>
<defs>
<linearGradient id="paint0_linear" x1="26.604" y1="287.09" x2="317.85" y2="-26.0703" gradientUnits="userSpaceOnUse">
<stop stop-color="#BF0077"/>
<stop offset="1" stop-color="#E01E42"/>
</linearGradient>
<linearGradient id="paint1_linear" x1="47.3446" y1="306.388" x2="338.602" y2="-6.77016" gradientUnits="userSpaceOnUse">
<stop stop-color="#BF0077"/>
<stop offset="1" stop-color="#E01E42"/>
</linearGradient>
<linearGradient id="paint2_linear" x1="40.9654" y1="300.452" x2="332.228" y2="-12.7102" gradientUnits="userSpaceOnUse">
<stop stop-color="#BF0077"/>
<stop offset="1" stop-color="#E01E42"/>
</linearGradient>
<linearGradient id="paint3_linear" x1="93.9968" y1="349.771" x2="385.251" y2="36.61" gradientUnits="userSpaceOnUse">
<stop stop-color="#BF0077"/>
<stop offset="1" stop-color="#E01E42"/>
</linearGradient>
<linearGradient id="paint4_linear" x1="76.5832" y1="333.57" x2="367.829" y2="20.41" gradientUnits="userSpaceOnUse">
<stop stop-color="#BF0077"/>
<stop offset="1" stop-color="#E01E42"/>
</linearGradient>
<linearGradient id="paint5_linear" x1="-29.5308" y1="234.884" x2="261.719" y2="-78.2798" gradientUnits="userSpaceOnUse">
<stop stop-color="#BF0077"/>
<stop offset="1" stop-color="#E01E42"/>
</linearGradient>
<linearGradient id="paint6_linear" x1="20.2096" y1="281.143" x2="311.462" y2="-32.02" gradientUnits="userSpaceOnUse">
<stop stop-color="#BF0077"/>
<stop offset="1" stop-color="#E01E42"/>
</linearGradient>
<linearGradient id="paint7_linear" x1="53.2382" y1="311.864" x2="344.489" y2="-1.3002" gradientUnits="userSpaceOnUse">
<stop stop-color="#BF0077"/>
<stop offset="1" stop-color="#E01E42"/>
</linearGradient>
<linearGradient id="paint8_linear" x1="97.1066" y1="352.661" x2="388.362" y2="39.5003" gradientUnits="userSpaceOnUse">
<stop stop-color="#BF0077"/>
<stop offset="1" stop-color="#E01E42"/>
</linearGradient>
<linearGradient id="paint9_linear" x1="4.62113" y1="266.648" x2="295.869" y2="-46.5104" gradientUnits="userSpaceOnUse">
<stop stop-color="#BF0077"/>
<stop offset="1" stop-color="#E01E42"/>
</linearGradient>
<linearGradient id="paint10_linear" x1="2.84819" y1="264.995" x2="294.1" y2="-48.1596" gradientUnits="userSpaceOnUse">
<stop stop-color="#BF0077"/>
<stop offset="1" stop-color="#E01E42"/>
</linearGradient>
<linearGradient id="paint11_linear" x1="64.6684" y1="322.496" x2="355.919" y2="9.34039" gradientUnits="userSpaceOnUse">
<stop stop-color="#BF0077"/>
<stop offset="1" stop-color="#E01E42"/>
</linearGradient>
<linearGradient id="paint12_linear" x1="89.7568" y1="345.822" x2="381.011" y2="32.66" gradientUnits="userSpaceOnUse">
<stop stop-color="#BF0077"/>
<stop offset="1" stop-color="#E01E42"/>
</linearGradient>
<linearGradient id="paint13_linear" x1="-22.194" y1="241.7" x2="269.06" y2="-71.4596" gradientUnits="userSpaceOnUse">
<stop stop-color="#BF0077"/>
<stop offset="1" stop-color="#E01E42"/>
</linearGradient>
<linearGradient id="paint14_linear" x1="-9.02441" y1="253.95" x2="282.221" y2="-59.21" gradientUnits="userSpaceOnUse">
<stop stop-color="#BF0077"/>
<stop offset="1" stop-color="#E01E42"/>
</linearGradient>
<linearGradient id="paint15_linear" x1="62.9492" y1="320.896" x2="354.199" y2="7.74016" gradientUnits="userSpaceOnUse">
<stop stop-color="#BF0077"/>
<stop offset="1" stop-color="#E01E42"/>
</linearGradient>
<linearGradient id="paint16_linear" x1="-26.4584" y1="237.745" x2="264.792" y2="-75.4102" gradientUnits="userSpaceOnUse">
<stop stop-color="#BF0077"/>
<stop offset="1" stop-color="#E01E42"/>
</linearGradient>
<linearGradient id="paint17_linear" x1="33.9608" y1="293.937" x2="325.211" y2="-19.2201" gradientUnits="userSpaceOnUse">
<stop stop-color="#BF0077"/>
<stop offset="1" stop-color="#E01E42"/>
</linearGradient>
<linearGradient id="paint18_linear" x1="33.5433" y1="293.541" x2="324.789" y2="-19.6198" gradientUnits="userSpaceOnUse">
<stop stop-color="#BF0077"/>
<stop offset="1" stop-color="#E01E42"/>
</linearGradient>
<linearGradient id="paint19_linear" x1="115.692" y1="369.94" x2="406.942" y2="56.7805" gradientUnits="userSpaceOnUse">
<stop stop-color="#BF0077"/>
<stop offset="1" stop-color="#E01E42"/>
</linearGradient>
<linearGradient id="paint20_linear" x1="-48.1286" y1="217.587" x2="243.119" y2="-95.5598" gradientUnits="userSpaceOnUse">
<stop stop-color="#BF0077"/>
<stop offset="1" stop-color="#E01E42"/>
</linearGradient>
<linearGradient id="paint21_linear" x1="95.2236" y1="350.907" x2="386.472" y2="37.7498" gradientUnits="userSpaceOnUse">
<stop stop-color="#BF0077"/>
<stop offset="1" stop-color="#E01E42"/>
</linearGradient>
<linearGradient id="paint22_linear" x1="14.2976" y1="275.641" x2="305.552" y2="-37.5202" gradientUnits="userSpaceOnUse">
<stop stop-color="#BF0077"/>
<stop offset="1" stop-color="#E01E42"/>
</linearGradient>
<linearGradient id="paint23_linear" x1="-27.6592" y1="236.626" x2="263.601" y2="-76.5296" gradientUnits="userSpaceOnUse">
<stop stop-color="#BF0077"/>
<stop offset="1" stop-color="#E01E42"/>
</linearGradient>
<linearGradient id="paint24_linear" x1="30.5598" y1="290.774" x2="321.811" y2="-22.3897" gradientUnits="userSpaceOnUse">
<stop stop-color="#BF0077"/>
<stop offset="1" stop-color="#E01E42"/>
</linearGradient>
<clipPath id="clip0">
<rect width="317" height="305.2" fill="white"/>
</clipPath>
</defs>
</svg>
