<svg width="371" height="233" viewBox="0 0 371 233" fill="none" xmlns="http://www.w3.org/2000/svg">
<path d="M124.825 125.188C142.228 140.252 199.611 164.083 236.148 164.055C310.596 163.998 306.91 97.8337 262.576 94.675C218.243 91.5164 192.888 170.934 292.103 202.071C371.476 226.979 402.484 189.898 408.067 168.243" stroke="#373D9E" stroke-dasharray="10 10"/>
<path d="M0.00271603 53.7661L133.65 50.2223L103.037 80.271L0.00271603 53.7661Z" fill="url(#paint0_linear_323_265)"/>
<path d="M103.037 80.2712L116.107 126.259L0.00264403 53.7664L103.037 80.2712Z" fill="url(#paint1_linear_323_265)"/>
<path d="M116.108 126.259L90.7102 96.8691L0.00342109 53.7661L116.108 126.259Z" fill="#1A0F91"/>
<path d="M2.21456e-05 53.7663L71.8426 141.165L90.7068 96.8693L2.21456e-05 53.7663Z" fill="url(#paint2_linear_323_265)"/>
<defs>
<linearGradient id="paint0_linear_323_265" x1="24.4046" y1="80.4131" x2="124.21" y2="31.1107" gradientUnits="userSpaceOnUse">
<stop stop-color="#1949F6"/>
<stop offset="1" stop-color="#5676FD"/>
</linearGradient>
<linearGradient id="paint1_linear_323_265" x1="31.784" y1="102.99" x2="98.0816" y2="70.2399" gradientUnits="userSpaceOnUse">
<stop stop-color="#0733D0"/>
<stop offset="1" stop-color="#5676FD"/>
</linearGradient>
<linearGradient id="paint2_linear_323_265" x1="29.0301" y1="100.87" x2="80.197" y2="75.5938" gradientUnits="userSpaceOnUse">
<stop stop-color="#1949F6"/>
<stop offset="1" stop-color="#5676FD"/>
</linearGradient>
</defs>
</svg>
