<svg width="90" height="130" viewBox="0 0 90 130" fill="none" xmlns="http://www.w3.org/2000/svg">
<path d="M89.9531 4.99113C89.9531 2.30376 87.6466 0.000289816 84.9557 0.000289699C82.2648 0.000289581 79.9583 2.30376 79.9583 4.99113C79.9583 7.67849 82.2648 9.98193 84.9557 9.98193C87.6466 9.98193 89.9531 7.67849 89.9531 4.99113Z" fill="#E6E6FD"/>
<path d="M89.9531 24.9537C89.9531 22.2664 87.6466 19.9629 84.9557 19.9629C82.2648 19.9629 79.9583 22.2664 79.9583 24.9537C79.9583 27.6411 82.2648 29.9446 84.9557 29.9446C87.6466 29.9446 89.9531 27.6411 89.9531 24.9537Z" fill="#E6E6FD"/>
<path d="M89.9531 44.9179C89.9531 42.2306 87.6466 39.9271 84.9557 39.9271C82.2648 39.9271 79.9583 42.2306 79.9583 44.9179C79.9583 47.6053 82.2648 49.9087 84.9557 49.9087C87.6466 49.9087 89.9531 47.6053 89.9531 44.9179Z" fill="#E6E6FD"/>
<path d="M89.9531 64.88C89.9531 62.1927 87.6466 59.8892 84.9557 59.8892C82.2648 59.8892 79.9583 62.1927 79.9583 64.88C79.9583 67.5674 82.2648 69.8708 84.9557 69.8708C87.6466 69.8708 89.9531 67.5674 89.9531 64.88Z" fill="#E6E6FD"/>
<path d="M79.9583 84.8436C79.9583 87.531 82.2648 89.8345 84.9557 89.8345C87.6466 89.8345 89.9531 87.531 89.9531 84.8436C89.9531 82.1562 87.6466 79.8528 84.9557 79.8528C82.2648 79.8528 79.9583 82.1562 79.9583 84.8436Z" fill="#E6E6FD"/>
<path d="M69.9634 4.99113C69.9634 2.30376 67.657 0.000289816 64.966 0.000289699C62.2751 0.000289581 59.9685 2.30376 59.9685 4.99113C59.9685 7.67849 62.2751 9.98193 64.966 9.98193C67.657 9.98193 69.9634 7.67849 69.9634 4.99113Z" fill="#E6E6FD"/>
<path d="M69.9634 24.9537C69.9634 22.2664 67.657 19.9629 64.966 19.9629C62.2751 19.9629 59.9685 22.2664 59.9685 24.9537C59.9685 27.6411 62.2751 29.9446 64.966 29.9446C67.657 29.9446 69.9634 27.6411 69.9634 24.9537Z" fill="#E6E6FD"/>
<path d="M69.9634 44.9179C69.9634 42.2306 67.657 39.9271 64.966 39.9271C62.2751 39.9271 59.9685 42.2306 59.9685 44.9179C59.9685 47.6053 62.2751 49.9087 64.966 49.9087C67.657 49.9087 69.9634 47.6053 69.9634 44.9179Z" fill="#E6E6FD"/>
<path d="M69.9634 64.88C69.9634 62.1927 67.657 59.8892 64.966 59.8892C62.2751 59.8892 59.9685 62.1927 59.9685 64.88C59.9685 67.5674 62.2751 69.8708 64.966 69.8708C67.657 69.8708 69.9634 67.5674 69.9634 64.88Z" fill="#E6E6FD"/>
<path d="M69.9634 84.8441C69.9634 82.1567 67.657 79.8533 64.966 79.8533C62.2751 79.8533 59.9685 82.1567 59.9685 84.8441C59.9685 87.5315 62.2751 89.835 64.966 89.835C67.657 89.835 69.9634 87.5315 69.9634 84.8441Z" fill="#E6E6FD"/>
<path d="M49.9735 4.99113C49.9735 2.30376 47.667 0.000289816 44.9761 0.000289699C42.2852 0.000289581 39.9788 2.30376 39.9788 4.99113C39.9788 7.67849 42.2852 9.98193 44.9761 9.98193C47.667 9.98193 49.9735 7.67849 49.9735 4.99113Z" fill="#E6E6FD"/>
<path d="M49.9735 24.9537C49.9735 22.2664 47.667 19.9629 44.9761 19.9629C42.2852 19.9629 39.9788 22.2664 39.9788 24.9537C39.9788 27.6411 42.2852 29.9446 44.9761 29.9446C47.667 29.9446 49.9735 27.6411 49.9735 24.9537Z" fill="#E6E6FD"/>
<path d="M49.9735 44.9179C49.9735 42.2306 47.667 39.9271 44.9761 39.9271C42.2852 39.9271 39.9788 42.2306 39.9788 44.9179C39.9788 47.6053 42.2852 49.9087 44.9761 49.9087C47.667 49.9087 49.9735 47.6053 49.9735 44.9179Z" fill="#E6E6FD"/>
<path d="M49.9736 64.88C49.9736 62.1927 47.6671 59.8892 44.9762 59.8892C42.2853 59.8892 39.9788 62.1927 39.9788 64.88C39.9788 67.5674 42.2853 69.8708 44.9762 69.8708C47.6671 69.8708 49.9736 67.5674 49.9736 64.88Z" fill="#E6E6FD"/>
<path d="M49.9735 84.8441C49.9735 82.1567 47.667 79.8533 44.9761 79.8533C42.2852 79.8533 39.9788 82.1567 39.9788 84.8441C39.9788 87.5315 42.2852 89.835 44.9761 89.835C47.667 89.835 49.9735 87.5315 49.9735 84.8441Z" fill="#E6E6FD"/>
<path d="M29.9838 4.99113C29.9838 2.30376 27.6773 0.000289816 24.9863 0.000289699C22.2954 0.000289581 19.9889 2.30376 19.9889 4.99113C19.9889 7.67849 22.2954 9.98193 24.9863 9.98193C27.6773 9.98193 29.9838 7.67849 29.9838 4.99113Z" fill="#E6E6FD"/>
<path d="M29.9838 24.954C29.9838 22.2666 27.6773 19.9632 24.9863 19.9632C22.2954 19.9632 19.9889 22.2666 19.9889 24.954C19.9889 27.6414 22.2954 29.9448 24.9863 29.9448C27.6773 29.9448 29.9838 27.6414 29.9838 24.954Z" fill="#E6E6FD"/>
<path d="M29.9838 44.9179C29.9838 42.2306 27.6773 39.9271 24.9863 39.9271C22.2954 39.9271 19.9889 42.2306 19.9889 44.9179C19.9889 47.6053 22.2954 49.9087 24.9863 49.9087C27.6773 49.9087 29.9838 47.6053 29.9838 44.9179Z" fill="#E6E6FD"/>
<path d="M29.9838 64.88C29.9838 62.1927 27.6773 59.8892 24.9863 59.8892C22.2954 59.8892 19.9889 62.1927 19.9889 64.88C19.9889 67.5674 22.2954 69.8708 24.9863 69.8708C27.6773 69.8708 29.9838 67.5674 29.9838 64.88Z" fill="#E6E6FD"/>
<path d="M29.9838 84.8441C29.9838 82.1567 27.6773 79.8533 24.9863 79.8533C22.2954 79.8533 19.9889 82.1567 19.9889 84.8441C19.9889 87.5315 22.2954 89.835 24.9863 89.835C27.6773 89.835 29.9838 87.5315 29.9838 84.8441Z" fill="#E6E6FD"/>
<path d="M9.9939 4.99113C9.9939 2.30376 7.68737 0.000289816 4.99644 0.000289699C2.30551 0.000289581 -0.00101437 2.30376 -0.00101449 4.99113C-0.00101461 7.67849 2.30551 9.98193 4.99644 9.98193C7.68737 9.98193 9.9939 7.67849 9.9939 4.99113Z" fill="#E6E6FD"/>
<path d="M9.9939 24.954C9.9939 22.2666 7.68737 19.9632 4.99644 19.9632C2.30551 19.9632 -0.00101437 22.2666 -0.00101449 24.954C-0.00101461 27.6414 2.30551 29.9448 4.99644 29.9448C7.68737 29.9448 9.9939 27.6414 9.9939 24.954Z" fill="#E6E6FD"/>
<path d="M9.9939 44.9179C9.9939 42.2306 7.68737 39.9271 4.99644 39.9271C2.30551 39.9271 -0.00101819 42.2306 -0.00101831 44.9179C-0.00101842 47.6053 2.30551 49.9087 4.99644 49.9087C7.68737 49.9087 9.9939 47.6053 9.9939 44.9179Z" fill="#E6E6FD"/>
<path d="M9.9939 64.88C9.9939 62.1927 7.68737 59.8892 4.99644 59.8892C2.30551 59.8892 -0.00101056 62.1927 -0.00101068 64.88C-0.00101079 67.5674 2.30551 69.8708 4.99644 69.8708C7.68737 69.8708 9.9939 67.5674 9.9939 64.88Z" fill="#E6E6FD"/>
<path d="M9.9939 84.8441C9.9939 82.1567 7.68737 79.8533 4.99644 79.8533C2.30551 79.8533 -0.00101056 82.1567 -0.00101068 84.8441C-0.00101079 87.5315 2.30551 89.835 4.99644 89.835C7.68737 89.835 9.9939 87.5315 9.9939 84.8441Z" fill="#E6E6FD"/>
<path d="M89.9531 44.9911C89.9531 42.3038 87.6466 40.0003 84.9557 40.0003C82.2648 40.0003 79.9583 42.3038 79.9583 44.9911C79.9583 47.6785 82.2648 49.9819 84.9557 49.9819C87.6466 49.9819 89.9531 47.6785 89.9531 44.9911Z" fill="#E6E6FD"/>
<path d="M89.9531 64.9537C89.9531 62.2664 87.6466 59.9629 84.9557 59.9629C82.2648 59.9629 79.9583 62.2664 79.9583 64.9537C79.9583 67.6411 82.2648 69.9446 84.9557 69.9446C87.6466 69.9446 89.9531 67.6411 89.9531 64.9537Z" fill="#E6E6FD"/>
<path d="M89.9531 84.9179C89.9531 82.2306 87.6466 79.9271 84.9557 79.9271C82.2648 79.9271 79.9583 82.2306 79.9583 84.9179C79.9583 87.6053 82.2648 89.9087 84.9557 89.9087C87.6466 89.9087 89.9531 87.6053 89.9531 84.9179Z" fill="#E6E6FD"/>
<path d="M89.9531 104.88C89.9531 102.193 87.6466 99.8892 84.9557 99.8892C82.2648 99.8892 79.9583 102.193 79.9583 104.88C79.9583 107.567 82.2648 109.871 84.9557 109.871C87.6466 109.871 89.9531 107.567 89.9531 104.88Z" fill="#E6E6FD"/>
<path d="M79.9583 124.844C79.9583 127.531 82.2648 129.834 84.9557 129.834C87.6466 129.834 89.9531 127.531 89.9531 124.844C89.9531 122.156 87.6466 119.853 84.9557 119.853C82.2648 119.853 79.9583 122.156 79.9583 124.844Z" fill="#E6E6FD"/>
<path d="M69.9634 44.9911C69.9634 42.3038 67.657 40.0003 64.966 40.0003C62.2751 40.0003 59.9685 42.3038 59.9685 44.9911C59.9685 47.6785 62.2751 49.9819 64.966 49.9819C67.657 49.9819 69.9634 47.6785 69.9634 44.9911Z" fill="#E6E6FD"/>
<path d="M69.9634 64.9538C69.9634 62.2664 67.657 59.963 64.966 59.963C62.2751 59.963 59.9685 62.2664 59.9685 64.9538C59.9685 67.6411 62.2751 69.9446 64.966 69.9446C67.657 69.9446 69.9634 67.6411 69.9634 64.9538Z" fill="#E6E6FD"/>
<path d="M69.9634 84.9179C69.9634 82.2306 67.657 79.9271 64.966 79.9271C62.2751 79.9271 59.9685 82.2306 59.9685 84.9179C59.9685 87.6053 62.2751 89.9087 64.966 89.9087C67.657 89.9087 69.9634 87.6053 69.9634 84.9179Z" fill="#E6E6FD"/>
<path d="M69.9634 104.88C69.9634 102.193 67.657 99.8892 64.966 99.8892C62.2751 99.8892 59.9685 102.193 59.9685 104.88C59.9685 107.567 62.2751 109.871 64.966 109.871C67.657 109.871 69.9634 107.567 69.9634 104.88Z" fill="#E6E6FD"/>
<path d="M69.9634 124.844C69.9634 122.157 67.657 119.853 64.966 119.853C62.2751 119.853 59.9685 122.157 59.9685 124.844C59.9685 127.531 62.2751 129.835 64.966 129.835C67.657 129.835 69.9634 127.531 69.9634 124.844Z" fill="#E6E6FD"/>
<path d="M49.9735 44.9911C49.9735 42.3038 47.667 40.0003 44.9761 40.0003C42.2852 40.0003 39.9788 42.3038 39.9788 44.9911C39.9788 47.6785 42.2852 49.9819 44.9761 49.9819C47.667 49.9819 49.9735 47.6785 49.9735 44.9911Z" fill="#E6E6FD"/>
<path d="M49.9735 64.9538C49.9735 62.2664 47.667 59.963 44.9761 59.963C42.2852 59.963 39.9788 62.2664 39.9788 64.9538C39.9788 67.6411 42.2852 69.9446 44.9761 69.9446C47.667 69.9446 49.9735 67.6411 49.9735 64.9538Z" fill="#E6E6FD"/>
<path d="M49.9735 84.9179C49.9735 82.2306 47.667 79.9271 44.9761 79.9271C42.2852 79.9271 39.9788 82.2306 39.9788 84.9179C39.9788 87.6053 42.2852 89.9087 44.9761 89.9087C47.667 89.9087 49.9735 87.6053 49.9735 84.9179Z" fill="#E6E6FD"/>
<path d="M49.9736 104.88C49.9736 102.193 47.6671 99.8892 44.9762 99.8892C42.2853 99.8892 39.9788 102.193 39.9788 104.88C39.9788 107.567 42.2853 109.871 44.9762 109.871C47.6671 109.871 49.9736 107.567 49.9736 104.88Z" fill="#E6E6FD"/>
<path d="M49.9735 124.844C49.9735 122.157 47.667 119.853 44.9761 119.853C42.2852 119.853 39.9788 122.157 39.9788 124.844C39.9788 127.531 42.2852 129.835 44.9761 129.835C47.667 129.835 49.9735 127.531 49.9735 124.844Z" fill="#E6E6FD"/>
<path d="M29.9838 44.9911C29.9838 42.3037 27.6773 40.0003 24.9863 40.0003C22.2954 40.0003 19.9889 42.3037 19.9889 44.9911C19.9889 47.6785 22.2954 49.9819 24.9863 49.9819C27.6773 49.9819 29.9838 47.6785 29.9838 44.9911Z" fill="#E6E6FD"/>
<path d="M29.9838 64.954C29.9838 62.2666 27.6773 59.9632 24.9863 59.9632C22.2954 59.9632 19.9889 62.2666 19.9889 64.954C19.9889 67.6414 22.2954 69.9448 24.9863 69.9448C27.6773 69.9448 29.9838 67.6414 29.9838 64.954Z" fill="#E6E6FD"/>
<path d="M29.9838 84.9179C29.9838 82.2306 27.6773 79.9271 24.9863 79.9271C22.2954 79.9271 19.9889 82.2306 19.9889 84.9179C19.9889 87.6053 22.2954 89.9087 24.9863 89.9087C27.6773 89.9087 29.9838 87.6053 29.9838 84.9179Z" fill="#E6E6FD"/>
<path d="M29.9838 104.88C29.9838 102.193 27.6773 99.8892 24.9863 99.8892C22.2954 99.8892 19.9889 102.193 19.9889 104.88C19.9889 107.567 22.2954 109.871 24.9863 109.871C27.6773 109.871 29.9838 107.567 29.9838 104.88Z" fill="#E6E6FD"/>
<path d="M29.9838 124.844C29.9838 122.157 27.6773 119.853 24.9863 119.853C22.2954 119.853 19.9889 122.157 19.9889 124.844C19.9889 127.531 22.2954 129.835 24.9863 129.835C27.6773 129.835 29.9838 127.531 29.9838 124.844Z" fill="#E6E6FD"/>
<path d="M9.9939 44.9911C9.9939 42.3037 7.68737 40.0003 4.99644 40.0003C2.30551 40.0003 -0.00101437 42.3037 -0.00101449 44.9911C-0.00101461 47.6785 2.30551 49.9819 4.99644 49.9819C7.68737 49.9819 9.9939 47.6785 9.9939 44.9911Z" fill="#E6E6FD"/>
<path d="M9.9939 64.954C9.9939 62.2666 7.68737 59.9632 4.99644 59.9632C2.30551 59.9632 -0.00101437 62.2666 -0.00101449 64.954C-0.00101461 67.6414 2.30551 69.9448 4.99644 69.9448C7.68737 69.9448 9.9939 67.6414 9.9939 64.954Z" fill="#E6E6FD"/>
<path d="M9.9939 84.9179C9.9939 82.2306 7.68737 79.9271 4.99644 79.9271C2.30551 79.9271 -0.00101819 82.2306 -0.00101831 84.9179C-0.00101842 87.6053 2.30551 89.9087 4.99644 89.9087C7.68737 89.9087 9.9939 87.6053 9.9939 84.9179Z" fill="#E6E6FD"/>
<path d="M9.9939 104.88C9.9939 102.193 7.68737 99.8892 4.99644 99.8892C2.30551 99.8892 -0.00101056 102.193 -0.00101068 104.88C-0.00101079 107.567 2.30551 109.871 4.99644 109.871C7.68737 109.871 9.9939 107.567 9.9939 104.88Z" fill="#E6E6FD"/>
<path d="M9.9939 124.844C9.9939 122.157 7.68737 119.853 4.99644 119.853C2.30551 119.853 -0.00101056 122.157 -0.00101068 124.844C-0.00101079 127.531 2.30551 129.835 4.99644 129.835C7.68737 129.835 9.9939 127.531 9.9939 124.844Z" fill="#E6E6FD"/>
</svg>
