<svg width="268" height="90" viewBox="0 0 268 90" fill="none" xmlns="http://www.w3.org/2000/svg">
<path d="M221.954 69.9644C224.642 69.9644 226.945 67.6579 226.945 64.9669C226.945 62.276 224.642 59.9694 221.954 59.9694C219.267 59.9694 216.963 62.276 216.963 64.9669C216.963 67.6579 219.267 69.9644 221.954 69.9644Z" fill="#B8D1FF"/>
<path d="M201.991 29.9849C204.679 29.9849 206.982 27.6783 206.982 24.9874C206.982 22.2964 204.679 19.9899 201.991 19.9899C199.304 19.9899 197 22.2964 197 24.9874C197 27.6783 199.304 29.9849 201.991 29.9849Z" fill="#B8D1FF"/>
<path d="M201.991 89.9541C204.679 89.9541 206.982 87.6476 206.982 84.9567C206.982 82.2658 204.679 79.9593 201.991 79.9593C199.304 79.9593 197 82.2658 197 84.9567C197 87.6476 199.304 89.9541 201.991 89.9541Z" fill="#B8D1FF"/>
<path d="M221.954 89.9541C224.641 89.9541 226.945 87.6476 226.945 84.9567C226.945 82.2658 224.641 79.9593 221.954 79.9593C219.267 79.9593 216.963 82.2658 216.963 84.9567C216.963 87.6476 219.267 89.9541 221.954 89.9541Z" fill="#B8D1FF"/>
<path d="M201.991 69.9644C204.678 69.9644 206.982 67.6579 206.982 64.9669C206.982 62.276 204.678 59.9694 201.991 59.9694C199.304 59.9694 197 62.276 197 64.9669C197 67.6579 199.304 69.9644 201.991 69.9644Z" fill="#B8D1FF"/>
<path d="M221.954 49.9746C224.641 49.9746 226.945 47.6681 226.945 44.9772C226.945 42.2863 224.641 39.9799 221.954 39.9799C219.267 39.9799 216.963 42.2863 216.963 44.9772C216.963 47.6681 219.267 49.9746 221.954 49.9746Z" fill="#B8D1FF"/>
<path d="M201.991 49.9746C204.678 49.9746 206.982 47.6681 206.982 44.9772C206.982 42.2863 204.678 39.9799 201.991 39.9799C199.304 39.9799 197 42.2863 197 44.9772C197 47.6681 199.304 49.9746 201.991 49.9746Z" fill="#B8D1FF"/>
<path d="M221.954 29.9849C224.641 29.9849 226.945 27.6783 226.945 24.9874C226.945 22.2964 224.641 19.9899 221.954 19.9899C219.267 19.9899 216.963 22.2964 216.963 24.9874C216.963 27.6783 219.267 29.9849 221.954 29.9849Z" fill="#B8D1FF"/>
<path d="M221.954 9.99512C224.641 9.99512 226.945 7.68859 226.945 4.99766C226.945 2.30673 224.641 0.000208572 221.954 0.000208337C219.267 0.000208102 216.963 2.30673 216.963 4.99766C216.963 7.68859 219.267 9.99512 221.954 9.99512Z" fill="#B8D1FF"/>
<path d="M201.991 9.99512C204.678 9.99512 206.982 7.68859 206.982 4.99766C206.982 2.30673 204.678 0.000208572 201.991 0.000208337C199.304 0.000208102 197 2.30673 197 4.99766C197 7.68859 199.304 9.99512 201.991 9.99512Z" fill="#B8D1FF"/>
<path d="M63.9542 69.9644C66.6416 69.9644 68.9451 67.6579 68.9451 64.9669C68.9451 62.276 66.6416 59.9694 63.9542 59.9694C61.2669 59.9694 58.9634 62.276 58.9634 64.9669C58.9634 67.6579 61.2669 69.9644 63.9542 69.9644Z" fill="#B8D1FF"/>
<path d="M43.9914 29.9849C46.6788 29.9849 48.9822 27.6783 48.9822 24.9874C48.9822 22.2964 46.6788 19.9899 43.9914 19.9899C41.304 19.9899 39.0005 22.2964 39.0005 24.9874C39.0005 27.6783 41.304 29.9849 43.9914 29.9849Z" fill="#B8D1FF"/>
<path d="M43.9914 89.9541C46.6788 89.9541 48.9822 87.6476 48.9822 84.9567C48.9822 82.2658 46.6788 79.9593 43.9914 79.9593C41.304 79.9593 39.0005 82.2658 39.0005 84.9567C39.0005 87.6476 41.304 89.9541 43.9914 89.9541Z" fill="#B8D1FF"/>
<path d="M63.9541 89.9541C66.6414 89.9541 68.9449 87.6476 68.9449 84.9567C68.9449 82.2658 66.6414 79.9593 63.9541 79.9593C61.2667 79.9593 58.9633 82.2658 58.9633 84.9567C58.9633 87.6476 61.2667 89.9541 63.9541 89.9541Z" fill="#B8D1FF"/>
<path d="M43.9912 69.9644C46.6786 69.9644 48.982 67.6579 48.982 64.9669C48.982 62.276 46.6786 59.9694 43.9912 59.9694C41.3038 59.9694 39.0004 62.276 39.0004 64.9669C39.0004 67.6579 41.3038 69.9644 43.9912 69.9644Z" fill="#B8D1FF"/>
<path d="M63.9541 49.9746C66.6414 49.9746 68.9449 47.6681 68.9449 44.9772C68.9449 42.2863 66.6414 39.9799 63.9541 39.9799C61.2667 39.9799 58.9633 42.2863 58.9633 44.9772C58.9633 47.6681 61.2667 49.9746 63.9541 49.9746Z" fill="#B8D1FF"/>
<path d="M43.9912 49.9746C46.6786 49.9746 48.982 47.6681 48.982 44.9772C48.982 42.2863 46.6786 39.9799 43.9912 39.9799C41.3038 39.9799 39.0004 42.2863 39.0004 44.9772C39.0004 47.6681 41.3038 49.9746 43.9912 49.9746Z" fill="#B8D1FF"/>
<path d="M63.9541 29.9849C66.6414 29.9849 68.9449 27.6783 68.9449 24.9874C68.9449 22.2964 66.6414 19.9899 63.9541 19.9899C61.2667 19.9899 58.9633 22.2964 58.9633 24.9874C58.9633 27.6783 61.2667 29.9849 63.9541 29.9849Z" fill="#B8D1FF"/>
<path d="M63.9541 9.99512C66.6414 9.99512 68.9449 7.68859 68.9449 4.99766C68.9449 2.30673 66.6414 0.000208572 63.9541 0.000208337C61.2667 0.000208102 58.9633 2.30673 58.9633 4.99766C58.9633 7.68859 61.2667 9.99512 63.9541 9.99512Z" fill="#B8D1FF"/>
<path d="M43.9912 9.99512C46.6786 9.99512 48.982 7.68859 48.982 4.99766C48.982 2.30673 46.6786 0.000208572 43.9912 0.000208337C41.3038 0.000208102 39.0004 2.30673 39.0004 4.99766C39.0004 7.68859 41.3038 9.99512 43.9912 9.99512Z" fill="#B8D1FF"/>
<path d="M143.954 69.9644C146.642 69.9644 148.945 67.6579 148.945 64.9669C148.945 62.276 146.642 59.9694 143.954 59.9694C141.267 59.9694 138.963 62.276 138.963 64.9669C138.963 67.6579 141.267 69.9644 143.954 69.9644Z" fill="#B8D1FF"/>
<path d="M123.991 29.9849C126.679 29.9849 128.982 27.6783 128.982 24.9874C128.982 22.2964 126.679 19.9899 123.991 19.9899C121.304 19.9899 119.001 22.2964 119.001 24.9874C119.001 27.6783 121.304 29.9849 123.991 29.9849Z" fill="#B8D1FF"/>
<path d="M123.991 89.9541C126.679 89.9541 128.982 87.6476 128.982 84.9567C128.982 82.2658 126.679 79.9593 123.991 79.9593C121.304 79.9593 119.001 82.2658 119.001 84.9567C119.001 87.6476 121.304 89.9541 123.991 89.9541Z" fill="#B8D1FF"/>
<path d="M143.954 89.9541C146.641 89.9541 148.945 87.6476 148.945 84.9567C148.945 82.2658 146.641 79.9593 143.954 79.9593C141.267 79.9593 138.963 82.2658 138.963 84.9567C138.963 87.6476 141.267 89.9541 143.954 89.9541Z" fill="#B8D1FF"/>
<path d="M123.991 69.9644C126.679 69.9644 128.982 67.6579 128.982 64.9669C128.982 62.276 126.679 59.9694 123.991 59.9694C121.304 59.9694 119 62.276 119 64.9669C119 67.6579 121.304 69.9644 123.991 69.9644Z" fill="#B8D1FF"/>
<path d="M143.954 49.9746C146.641 49.9746 148.945 47.6681 148.945 44.9772C148.945 42.2863 146.641 39.9799 143.954 39.9799C141.267 39.9799 138.963 42.2863 138.963 44.9772C138.963 47.6681 141.267 49.9746 143.954 49.9746Z" fill="#B8D1FF"/>
<path d="M123.991 49.9746C126.679 49.9746 128.982 47.6681 128.982 44.9772C128.982 42.2863 126.679 39.9799 123.991 39.9799C121.304 39.9799 119 42.2863 119 44.9772C119 47.6681 121.304 49.9746 123.991 49.9746Z" fill="#B8D1FF"/>
<path d="M143.954 29.9849C146.641 29.9849 148.945 27.6783 148.945 24.9874C148.945 22.2964 146.641 19.9899 143.954 19.9899C141.267 19.9899 138.963 22.2964 138.963 24.9874C138.963 27.6783 141.267 29.9849 143.954 29.9849Z" fill="#B8D1FF"/>
<path d="M143.954 9.99512C146.641 9.99512 148.945 7.68859 148.945 4.99766C148.945 2.30673 146.641 0.000208572 143.954 0.000208337C141.267 0.000208102 138.963 2.30673 138.963 4.99766C138.963 7.68859 141.267 9.99512 143.954 9.99512Z" fill="#B8D1FF"/>
<path d="M123.991 9.99512C126.679 9.99512 128.982 7.68859 128.982 4.99766C128.982 2.30673 126.679 0.000208572 123.991 0.000208337C121.304 0.000208102 119 2.30673 119 4.99766C119 7.68859 121.304 9.99512 123.991 9.99512Z" fill="#B8D1FF"/>
<path d="M262.954 69.9644C265.641 69.9644 267.945 67.6579 267.945 64.9669C267.945 62.276 265.641 59.9694 262.954 59.9694C260.267 59.9694 257.963 62.276 257.963 64.9669C257.963 67.6579 260.267 69.9644 262.954 69.9644Z" fill="#B8D1FF"/>
<path d="M242.991 29.9849C245.678 29.9849 247.982 27.6783 247.982 24.9874C247.982 22.2964 245.678 19.9899 242.991 19.9899C240.304 19.9899 238 22.2964 238 24.9874C238 27.6783 240.304 29.9849 242.991 29.9849Z" fill="#B8D1FF"/>
<path d="M242.991 89.9541C245.678 89.9541 247.982 87.6476 247.982 84.9567C247.982 82.2658 245.678 79.9593 242.991 79.9593C240.304 79.9593 238 82.2658 238 84.9567C238 87.6476 240.304 89.9541 242.991 89.9541Z" fill="#B8D1FF"/>
<path d="M262.954 89.9541C265.641 89.9541 267.945 87.6476 267.945 84.9567C267.945 82.2658 265.641 79.9593 262.954 79.9593C260.266 79.9593 257.963 82.2658 257.963 84.9567C257.963 87.6476 260.266 89.9541 262.954 89.9541Z" fill="#B8D1FF"/>
<path d="M242.991 69.9644C245.678 69.9644 247.982 67.6579 247.982 64.9669C247.982 62.276 245.678 59.9694 242.991 59.9694C240.303 59.9694 238 62.276 238 64.9669C238 67.6579 240.303 69.9644 242.991 69.9644Z" fill="#B8D1FF"/>
<path d="M262.954 49.9746C265.641 49.9746 267.945 47.6681 267.945 44.9772C267.945 42.2863 265.641 39.9799 262.954 39.9799C260.266 39.9799 257.963 42.2863 257.963 44.9772C257.963 47.6681 260.266 49.9746 262.954 49.9746Z" fill="#B8D1FF"/>
<path d="M242.991 49.9746C245.678 49.9746 247.982 47.6681 247.982 44.9772C247.982 42.2863 245.678 39.9799 242.991 39.9799C240.303 39.9799 238 42.2863 238 44.9772C238 47.6681 240.303 49.9746 242.991 49.9746Z" fill="#B8D1FF"/>
<path d="M262.954 29.9849C265.641 29.9849 267.945 27.6783 267.945 24.9874C267.945 22.2964 265.641 19.9899 262.954 19.9899C260.266 19.9899 257.963 22.2964 257.963 24.9874C257.963 27.6783 260.266 29.9849 262.954 29.9849Z" fill="#B8D1FF"/>
<path d="M262.954 9.99512C265.641 9.99512 267.945 7.68859 267.945 4.99766C267.945 2.30673 265.641 0.000208572 262.954 0.000208337C260.266 0.000208102 257.963 2.30673 257.963 4.99766C257.963 7.68859 260.266 9.99512 262.954 9.99512Z" fill="#B8D1FF"/>
<path d="M242.991 9.99512C245.678 9.99512 247.982 7.68859 247.982 4.99766C247.982 2.30673 245.678 0.000208572 242.991 0.000208337C240.303 0.000208102 238 2.30673 238 4.99766C238 7.68859 240.303 9.99512 242.991 9.99512Z" fill="#B8D1FF"/>
<path d="M104.954 69.9644C107.641 69.9644 109.945 67.6579 109.945 64.9669C109.945 62.276 107.641 59.9694 104.954 59.9694C102.267 59.9694 99.9632 62.276 99.9632 64.9669C99.9632 67.6579 102.267 69.9644 104.954 69.9644Z" fill="#B8D1FF"/>
<path d="M84.9911 29.9849C87.6785 29.9849 89.9819 27.6783 89.9819 24.9874C89.9819 22.2964 87.6785 19.9899 84.9911 19.9899C82.3038 19.9899 80.0003 22.2964 80.0003 24.9874C80.0003 27.6783 82.3038 29.9849 84.9911 29.9849Z" fill="#B8D1FF"/>
<path d="M84.9911 89.9541C87.6785 89.9541 89.9819 87.6476 89.9819 84.9567C89.9819 82.2658 87.6785 79.9593 84.9911 79.9593C82.3038 79.9593 80.0003 82.2658 80.0003 84.9567C80.0003 87.6476 82.3038 89.9541 84.9911 89.9541Z" fill="#B8D1FF"/>
<path d="M104.954 89.9541C107.641 89.9541 109.945 87.6476 109.945 84.9567C109.945 82.2658 107.641 79.9593 104.954 79.9593C102.266 79.9593 99.963 82.2658 99.963 84.9567C99.963 87.6476 102.266 89.9541 104.954 89.9541Z" fill="#B8D1FF"/>
<path d="M84.991 69.9644C87.6783 69.9644 89.9818 67.6579 89.9818 64.9669C89.9818 62.276 87.6783 59.9694 84.991 59.9694C82.3036 59.9694 80.0001 62.276 80.0001 64.9669C80.0001 67.6579 82.3036 69.9644 84.991 69.9644Z" fill="#B8D1FF"/>
<path d="M104.954 49.9746C107.641 49.9746 109.945 47.6681 109.945 44.9772C109.945 42.2863 107.641 39.9799 104.954 39.9799C102.266 39.9799 99.963 42.2863 99.963 44.9772C99.963 47.6681 102.266 49.9746 104.954 49.9746Z" fill="#B8D1FF"/>
<path d="M84.991 49.9746C87.6783 49.9746 89.9818 47.6681 89.9818 44.9772C89.9818 42.2863 87.6783 39.9799 84.991 39.9799C82.3036 39.9799 80.0001 42.2863 80.0001 44.9772C80.0001 47.6681 82.3036 49.9746 84.991 49.9746Z" fill="#B8D1FF"/>
<path d="M104.954 29.9849C107.641 29.9849 109.945 27.6783 109.945 24.9874C109.945 22.2964 107.641 19.9899 104.954 19.9899C102.266 19.9899 99.963 22.2964 99.963 24.9874C99.963 27.6783 102.266 29.9849 104.954 29.9849Z" fill="#B8D1FF"/>
<path d="M104.954 9.99512C107.641 9.99512 109.945 7.68859 109.945 4.99766C109.945 2.30673 107.641 0.000208572 104.954 0.000208337C102.266 0.000208102 99.963 2.30673 99.963 4.99766C99.963 7.68859 102.266 9.99512 104.954 9.99512Z" fill="#B8D1FF"/>
<path d="M84.991 9.99512C87.6783 9.99512 89.9818 7.68859 89.9818 4.99766C89.9818 2.30673 87.6783 0.000208572 84.991 0.000208337C82.3036 0.000208102 80.0001 2.30673 80.0001 4.99766C80.0001 7.68859 82.3036 9.99512 84.991 9.99512Z" fill="#B8D1FF"/>
<path d="M182.954 69.9644C185.641 69.9644 187.945 67.6579 187.945 64.9669C187.945 62.276 185.641 59.9694 182.954 59.9694C180.267 59.9694 177.963 62.276 177.963 64.9669C177.963 67.6579 180.267 69.9644 182.954 69.9644Z" fill="#B8D1FF"/>
<path d="M162.991 29.9849C165.679 29.9849 167.982 27.6783 167.982 24.9874C167.982 22.2964 165.679 19.9899 162.991 19.9899C160.304 19.9899 158 22.2964 158 24.9874C158 27.6783 160.304 29.9849 162.991 29.9849Z" fill="#B8D1FF"/>
<path d="M162.991 89.9541C165.678 89.9541 167.982 87.6476 167.982 84.9567C167.982 82.2658 165.678 79.9593 162.991 79.9593C160.304 79.9593 158 82.2658 158 84.9567C158 87.6476 160.304 89.9541 162.991 89.9541Z" fill="#B8D1FF"/>
<path d="M182.954 89.9541C185.641 89.9541 187.945 87.6476 187.945 84.9567C187.945 82.2658 185.641 79.9593 182.954 79.9593C180.266 79.9593 177.963 82.2658 177.963 84.9567C177.963 87.6476 180.266 89.9541 182.954 89.9541Z" fill="#B8D1FF"/>
<path d="M162.991 69.9644C165.678 69.9644 167.982 67.6579 167.982 64.9669C167.982 62.276 165.678 59.9694 162.991 59.9694C160.304 59.9694 158 62.276 158 64.9669C158 67.6579 160.304 69.9644 162.991 69.9644Z" fill="#B8D1FF"/>
<path d="M182.954 49.9746C185.641 49.9746 187.945 47.6681 187.945 44.9772C187.945 42.2863 185.641 39.9799 182.954 39.9799C180.266 39.9799 177.963 42.2863 177.963 44.9772C177.963 47.6681 180.266 49.9746 182.954 49.9746Z" fill="#B8D1FF"/>
<path d="M162.991 49.9746C165.678 49.9746 167.982 47.6681 167.982 44.9772C167.982 42.2863 165.678 39.9799 162.991 39.9799C160.304 39.9799 158 42.2863 158 44.9772C158 47.6681 160.304 49.9746 162.991 49.9746Z" fill="#B8D1FF"/>
<path d="M182.954 29.9849C185.641 29.9849 187.945 27.6783 187.945 24.9874C187.945 22.2964 185.641 19.9899 182.954 19.9899C180.266 19.9899 177.963 22.2964 177.963 24.9874C177.963 27.6783 180.266 29.9849 182.954 29.9849Z" fill="#B8D1FF"/>
<path d="M182.954 9.99512C185.641 9.99512 187.945 7.68859 187.945 4.99766C187.945 2.30673 185.641 0.000208572 182.954 0.000208337C180.266 0.000208102 177.963 2.30673 177.963 4.99766C177.963 7.68859 180.266 9.99512 182.954 9.99512Z" fill="#B8D1FF"/>
<path d="M162.991 9.99512C165.678 9.99512 167.982 7.68859 167.982 4.99766C167.982 2.30673 165.678 0.000208572 162.991 0.000208337C160.304 0.000208102 158 2.30673 158 4.99766C158 7.68859 160.304 9.99512 162.991 9.99512Z" fill="#B8D1FF"/>
<path d="M24.954 69.9644C27.6414 69.9644 29.9448 67.6579 29.9448 64.9669C29.9448 62.276 27.6414 59.9694 24.954 59.9694C22.2666 59.9694 19.9632 62.276 19.9632 64.9669C19.9632 67.6579 22.2666 69.9644 24.954 69.9644Z" fill="#B8D1FF"/>
<path d="M4.99114 29.9849C7.67851 29.9849 9.98195 27.6783 9.98195 24.9874C9.98195 22.2964 7.67851 19.9899 4.99114 19.9899C2.30377 19.9899 0.000305848 22.2964 0.000305613 24.9874C0.000305377 27.6783 2.30377 29.9849 4.99114 29.9849Z" fill="#B8D1FF"/>
<path d="M4.99114 89.9541C7.67851 89.9541 9.98195 87.6476 9.98195 84.9567C9.98195 82.2658 7.67851 79.9593 4.99114 79.9593C2.30377 79.9593 0.000305848 82.2658 0.000305613 84.9567C0.000305377 87.6476 2.30377 89.9541 4.99114 89.9541Z" fill="#B8D1FF"/>
<path d="M24.9538 89.9541C27.6412 89.9541 29.9447 87.6476 29.9447 84.9567C29.9447 82.2658 27.6412 79.9593 24.9538 79.9593C22.2665 79.9593 19.963 82.2658 19.963 84.9567C19.963 87.6476 22.2665 89.9541 24.9538 89.9541Z" fill="#B8D1FF"/>
<path d="M4.99096 69.9644C7.67832 69.9644 9.98176 67.6579 9.98176 64.9669C9.98176 62.276 7.67832 59.9694 4.99096 59.9694C2.30359 59.9694 0.000122742 62.276 0.000122507 64.9669C0.000122272 67.6579 2.30359 69.9644 4.99096 69.9644Z" fill="#B8D1FF"/>
<path d="M24.9538 49.9746C27.6412 49.9746 29.9447 47.6681 29.9447 44.9772C29.9447 42.2863 27.6412 39.9799 24.9538 39.9799C22.2665 39.9799 19.963 42.2863 19.963 44.9772C19.963 47.6681 22.2665 49.9746 24.9538 49.9746Z" fill="#B8D1FF"/>
<path d="M4.99096 49.9746C7.67832 49.9746 9.98176 47.6681 9.98176 44.9772C9.98176 42.2863 7.67832 39.9799 4.99096 39.9799C2.30359 39.9799 0.000122742 42.2863 0.000122507 44.9772C0.000122272 47.6681 2.30359 49.9746 4.99096 49.9746Z" fill="#B8D1FF"/>
<path d="M24.9538 29.9849C27.6412 29.9849 29.9447 27.6783 29.9447 24.9874C29.9447 22.2964 27.6412 19.9899 24.9538 19.9899C22.2665 19.9899 19.963 22.2964 19.963 24.9874C19.963 27.6783 22.2665 29.9849 24.9538 29.9849Z" fill="#B8D1FF"/>
<path d="M24.9538 9.99512C27.6412 9.99512 29.9447 7.68859 29.9447 4.99766C29.9447 2.30673 27.6412 0.000208572 24.9538 0.000208337C22.2665 0.000208102 19.963 2.30673 19.963 4.99766C19.963 7.68859 22.2665 9.99512 24.9538 9.99512Z" fill="#B8D1FF"/>
<path d="M4.99096 9.99512C7.67832 9.99512 9.98176 7.68859 9.98176 4.99766C9.98176 2.30673 7.67832 0.000208572 4.99096 0.000208337C2.30359 0.000208102 0.000122742 2.30673 0.000122507 4.99766C0.000122272 7.68859 2.30359 9.99512 4.99096 9.99512Z" fill="#B8D1FF"/>
</svg>
