<svg width="30" height="90" viewBox="0 0 30 90" fill="none" xmlns="http://www.w3.org/2000/svg">
<path d="M24.9545 69.9644C27.6418 69.9644 29.9453 67.6579 29.9453 64.9669C29.9453 62.276 27.6418 59.9695 24.9545 59.9695C22.2671 59.9695 19.9636 62.276 19.9636 64.9669C19.9636 67.6579 22.2671 69.9644 24.9545 69.9644Z" fill="#E6E6FD"/>
<path d="M4.99159 29.9846C7.67897 29.9846 9.98242 27.6781 9.98242 24.9871C9.98242 22.2962 7.67897 19.9897 4.99159 19.9897C2.30421 19.9897 0.000733094 22.2962 0.000732859 24.9871C0.000732624 27.6781 2.30421 29.9846 4.99159 29.9846Z" fill="#E6E6FD"/>
<path d="M4.99159 89.9541C7.67897 89.9541 9.98242 87.6476 9.98242 84.9567C9.98242 82.2658 7.67897 79.9593 4.99159 79.9593C2.30421 79.9593 0.000733094 82.2658 0.000732859 84.9567C0.000732624 87.6476 2.30421 89.9541 4.99159 89.9541Z" fill="#E6E6FD"/>
<path d="M24.9543 89.9541C27.6416 89.9541 29.9451 87.6476 29.9451 84.9567C29.9451 82.2658 27.6416 79.9593 24.9543 79.9593C22.2669 79.9593 19.9635 82.2658 19.9635 84.9567C19.9635 87.6476 22.2669 89.9541 24.9543 89.9541Z" fill="#E6E6FD"/>
<path d="M4.99141 69.9644C7.67875 69.9644 9.98218 67.6579 9.98218 64.9669C9.98218 62.276 7.67876 59.9695 4.99141 59.9695C2.30406 59.9695 0.000611024 62.276 0.000610788 64.9669C0.000610553 67.6579 2.30406 69.9644 4.99141 69.9644Z" fill="#E6E6FD"/>
<path d="M24.9543 49.9746C27.6416 49.9746 29.9451 47.6681 29.9451 44.9772C29.9451 42.2863 27.6416 39.9799 24.9543 39.9799C22.2669 39.9799 19.9635 42.2863 19.9635 44.9772C19.9635 47.6681 22.2669 49.9746 24.9543 49.9746Z" fill="#E6E6FD"/>
<path d="M4.99141 49.9746C7.67875 49.9746 9.98218 47.6681 9.98218 44.9772C9.98218 42.2863 7.67876 39.9799 4.99141 39.9799C2.30406 39.9799 0.000611024 42.2863 0.000610788 44.9772C0.000610553 47.6681 2.30406 49.9746 4.99141 49.9746Z" fill="#E6E6FD"/>
<path d="M24.9543 29.9849C27.6416 29.9849 29.9451 27.6783 29.9451 24.9874C29.9451 22.2964 27.6416 19.9899 24.9543 19.9899C22.2669 19.9899 19.9635 22.2964 19.9635 24.9874C19.9635 27.6783 22.2669 29.9849 24.9543 29.9849Z" fill="#E6E6FD"/>
<path d="M24.9543 9.99487C27.6416 9.99487 29.9451 7.68835 29.9451 4.99742C29.9451 2.30649 27.6416 -2.88927e-05 24.9543 -2.91276e-05C22.2669 -2.93625e-05 19.9635 2.30649 19.9635 4.99742C19.9635 7.68835 22.2669 9.99487 24.9543 9.99487Z" fill="#E6E6FD"/>
<path d="M4.99141 9.99487C7.67875 9.99487 9.98218 7.68835 9.98218 4.99742C9.98218 2.30649 7.67876 -2.88927e-05 4.99141 -2.91276e-05C2.30406 -2.93625e-05 0.000611024 2.30649 0.000610788 4.99742C0.000610553 7.68835 2.30406 9.99487 4.99141 9.99487Z" fill="#E6E6FD"/>
</svg>
