<svg width="90" height="90" viewBox="0 0 90 90" fill="none" xmlns="http://www.w3.org/2000/svg">
<path d="M89.9541 4.99064C89.9541 2.30327 87.6476 -0.000195611 84.9567 -0.000195729C82.2658 -0.000195846 79.9593 2.30327 79.9593 4.99064C79.9593 7.67801 82.2658 9.98144 84.9567 9.98145C87.6476 9.98145 89.9541 7.67801 89.9541 4.99064Z" fill="white"/>
<path d="M89.9541 24.9535C89.9541 22.2661 87.6476 19.9627 84.9567 19.9627C82.2658 19.9627 79.9593 22.2661 79.9593 24.9535C79.9593 27.6409 82.2658 29.9443 84.9567 29.9443C87.6476 29.9443 89.9541 27.6409 89.9541 24.9535Z" fill="white"/>
<path d="M89.9541 44.9174C89.9541 42.2301 87.6476 39.9266 84.9567 39.9266C82.2658 39.9266 79.9593 42.2301 79.9593 44.9174C79.9593 47.6048 82.2658 49.9082 84.9567 49.9082C87.6476 49.9082 89.9541 47.6048 89.9541 44.9174Z" fill="white"/>
<path d="M89.9541 64.8798C89.9541 62.1924 87.6476 59.889 84.9567 59.889C82.2658 59.889 79.9593 62.1924 79.9593 64.8798C79.9593 67.5671 82.2658 69.8706 84.9567 69.8706C87.6476 69.8706 89.9541 67.5671 89.9541 64.8798Z" fill="white"/>
<path d="M79.9593 84.8431C79.9593 87.5305 82.2658 89.834 84.9567 89.834C87.6476 89.834 89.9541 87.5305 89.9541 84.8431C89.9541 82.1558 87.6476 79.8523 84.9567 79.8523C82.2658 79.8523 79.9593 82.1558 79.9593 84.8431Z" fill="white"/>
<path d="M69.9644 4.99064C69.9644 2.30327 67.6579 -0.000195611 64.9669 -0.000195729C62.276 -0.000195846 59.9694 2.30327 59.9694 4.99064C59.9694 7.67801 62.276 9.98144 64.9669 9.98145C67.6579 9.98145 69.9644 7.67801 69.9644 4.99064Z" fill="white"/>
<path d="M69.9644 24.9535C69.9644 22.2661 67.6579 19.9627 64.9669 19.9627C62.276 19.9627 59.9694 22.2661 59.9694 24.9535C59.9694 27.6409 62.276 29.9443 64.9669 29.9443C67.6579 29.9443 69.9644 27.6409 69.9644 24.9535Z" fill="white"/>
<path d="M69.9644 44.9174C69.9644 42.2301 67.6579 39.9266 64.9669 39.9266C62.276 39.9266 59.9694 42.2301 59.9694 44.9174C59.9694 47.6048 62.276 49.9082 64.9669 49.9082C67.6579 49.9082 69.9644 47.6048 69.9644 44.9174Z" fill="white"/>
<path d="M69.9644 64.8798C69.9644 62.1924 67.6579 59.889 64.9669 59.889C62.276 59.889 59.9694 62.1924 59.9694 64.8798C59.9694 67.5671 62.276 69.8706 64.9669 69.8706C67.6579 69.8706 69.9644 67.5671 69.9644 64.8798Z" fill="white"/>
<path d="M69.9644 84.8436C69.9644 82.1562 67.6579 79.8528 64.9669 79.8528C62.276 79.8528 59.9694 82.1562 59.9694 84.8436C59.9694 87.531 62.276 89.8345 64.9669 89.8345C67.6579 89.8345 69.9644 87.531 69.9644 84.8436Z" fill="white"/>
<path d="M49.9745 4.99064C49.9745 2.30327 47.668 -0.000195611 44.9771 -0.000195729C42.2862 -0.000195846 39.9797 2.30327 39.9797 4.99064C39.9797 7.67801 42.2862 9.98144 44.9771 9.98145C47.668 9.98145 49.9745 7.67801 49.9745 4.99064Z" fill="white"/>
<path d="M49.9745 24.9535C49.9745 22.2661 47.668 19.9627 44.9771 19.9627C42.2862 19.9627 39.9797 22.2661 39.9797 24.9535C39.9797 27.6409 42.2862 29.9443 44.9771 29.9443C47.668 29.9443 49.9745 27.6409 49.9745 24.9535Z" fill="white"/>
<path d="M49.9745 44.9174C49.9745 42.2301 47.668 39.9266 44.9771 39.9266C42.2862 39.9266 39.9797 42.2301 39.9797 44.9174C39.9797 47.6048 42.2862 49.9082 44.9771 49.9082C47.668 49.9082 49.9745 47.6048 49.9745 44.9174Z" fill="white"/>
<path d="M49.9745 64.8798C49.9745 62.1924 47.668 59.889 44.9771 59.889C42.2862 59.889 39.9797 62.1924 39.9797 64.8798C39.9797 67.5671 42.2862 69.8706 44.9771 69.8706C47.668 69.8706 49.9745 67.5671 49.9745 64.8798Z" fill="white"/>
<path d="M49.9745 84.8436C49.9745 82.1562 47.668 79.8528 44.9771 79.8528C42.2862 79.8528 39.9797 82.1562 39.9797 84.8436C39.9797 87.531 42.2862 89.8345 44.9771 89.8345C47.668 89.8345 49.9745 87.531 49.9745 84.8436Z" fill="white"/>
<path d="M29.9847 4.99064C29.9847 2.30327 27.6782 -0.000195611 24.9873 -0.000195729C22.2963 -0.000195846 19.9898 2.30327 19.9898 4.99064C19.9898 7.67801 22.2963 9.98144 24.9873 9.98145C27.6782 9.98145 29.9847 7.67801 29.9847 4.99064Z" fill="white"/>
<path d="M29.9847 24.9535C29.9847 22.2661 27.6782 19.9627 24.9873 19.9627C22.2963 19.9627 19.9898 22.2661 19.9898 24.9535C19.9898 27.6409 22.2963 29.9443 24.9873 29.9443C27.6782 29.9443 29.9847 27.6409 29.9847 24.9535Z" fill="white"/>
<path d="M29.9847 44.9174C29.9847 42.2301 27.6782 39.9266 24.9873 39.9266C22.2963 39.9266 19.9898 42.2301 19.9898 44.9174C19.9898 47.6048 22.2963 49.9082 24.9873 49.9082C27.6782 49.9082 29.9847 47.6048 29.9847 44.9174Z" fill="white"/>
<path d="M29.9847 64.8798C29.9847 62.1924 27.6782 59.889 24.9873 59.889C22.2963 59.889 19.9898 62.1924 19.9898 64.8798C19.9898 67.5671 22.2963 69.8706 24.9873 69.8706C27.6782 69.8706 29.9847 67.5671 29.9847 64.8798Z" fill="white"/>
<path d="M29.9847 84.8436C29.9847 82.1562 27.6782 79.8528 24.9873 79.8528C22.2963 79.8528 19.9898 82.1562 19.9898 84.8436C19.9898 87.531 22.2963 89.8345 24.9873 89.8345C27.6782 89.8345 29.9847 87.531 29.9847 84.8436Z" fill="white"/>
<path d="M9.99487 4.99064C9.99487 2.30327 7.68835 -0.000195611 4.99742 -0.000195729C2.30649 -0.000195846 -3.57159e-05 2.30327 -3.58334e-05 4.99064C-3.59509e-05 7.67801 2.30649 9.98144 4.99742 9.98145C7.68835 9.98145 9.99487 7.67801 9.99487 4.99064Z" fill="white"/>
<path d="M9.99487 24.9535C9.99487 22.2661 7.68835 19.9627 4.99742 19.9627C2.30649 19.9627 -3.57159e-05 22.2661 -3.58334e-05 24.9535C-3.59509e-05 27.6409 2.30649 29.9443 4.99742 29.9443C7.68835 29.9443 9.99487 27.6409 9.99487 24.9535Z" fill="white"/>
<path d="M9.99487 44.9174C9.99487 42.2301 7.68835 39.9266 4.99742 39.9266C2.30649 39.9266 -3.57159e-05 42.2301 -3.58334e-05 44.9174C-3.59509e-05 47.6048 2.30649 49.9082 4.99742 49.9082C7.68835 49.9082 9.99487 47.6048 9.99487 44.9174Z" fill="white"/>
<path d="M9.99487 64.8798C9.99487 62.1924 7.68835 59.889 4.99742 59.889C2.30649 59.889 -3.57159e-05 62.1924 -3.58334e-05 64.8798C-3.59509e-05 67.5671 2.30649 69.8706 4.99742 69.8706C7.68835 69.8706 9.99487 67.5671 9.99487 64.8798Z" fill="white"/>
<path d="M9.99487 84.8436C9.99487 82.1562 7.68835 79.8528 4.99742 79.8528C2.30649 79.8528 -3.57159e-05 82.1562 -3.58334e-05 84.8436C-3.59509e-05 87.531 2.30649 89.8345 4.99742 89.8345C7.68835 89.8345 9.99487 87.531 9.99487 84.8436Z" fill="white"/>
</svg>
