<svg width="895" height="704" viewBox="0 0 895 704" fill="none" xmlns="http://www.w3.org/2000/svg">
<path d="M258.001 28.9283C169.195 76.5961 236.202 135.401 176.918 159.691C117.634 183.98 -107.308 203.574 64.4092 399.497C236.126 595.421 228.996 667.557 400.551 614.735C572.107 561.913 554.327 567.023 660.997 659.316C767.671 751.609 919.637 688.816 904.932 564.719C890.227 440.621 862.214 435.003 930.163 375.408C998.111 315.813 977.284 69.8306 762.288 166.759C684.552 201.802 577.883 200.111 526.086 101.476C498.046 48.0664 398.348 -46.4055 258.001 28.9283Z" fill="url(#paint0_linear_295_70440)"/>
<defs>
<linearGradient id="paint0_linear_295_70440" x1="552.155" y1="43.9543" x2="509.905" y2="394.925" gradientUnits="userSpaceOnUse">
<stop stop-color="#D9E4FF"/>
<stop offset="1" stop-color="white" stop-opacity="0"/>
</linearGradient>
</defs>
</svg>
