<svg width="44" height="45" viewBox="0 0 44 45" fill="none" xmlns="http://www.w3.org/2000/svg">
<path d="M44 22.5C44 10.0723 34.1516 0 22 0C9.84844 0 0 10.0723 0 22.5C0 34.9277 9.84844 45 22 45C22.1289 45 22.2578 45 22.3867 44.9912V27.4834H17.6602V21.8496H22.3867V17.7012C22.3867 12.8936 25.257 10.2744 29.4508 10.2744C31.4617 10.2744 33.1891 10.4238 33.6875 10.4941V15.5215H30.8C28.5227 15.5215 28.0758 16.6289 28.0758 18.2549V21.8408H33.5328L32.8195 27.4746H28.0758V44.1299C37.2711 41.4316 44 32.7744 44 22.5Z" fill="black"/>
</svg>
