<svg xmlns="http://www.w3.org/2000/svg" viewBox="0 0 580.94 555.43"><defs><style>.cls-1{fill:#5565F9;fill-rule:evenodd;}</style></defs><g id="Réteg_2" data-name="Réteg 2"><g id="Réteg_1" data-name="Réteg 1"><path class="cls-1" d="M262.24,20.53a29.67,29.67,0,0,1,56.46,0L368.5,174a22.54,22.54,0,0,0,21.41,15.54l161.37-.08a29.7,29.7,0,0,1,17.43,53.71L438.17,338A22.43,22.43,0,0,0,430,363.12l49.92,153.43a29.69,29.69,0,0,1-45.69,33.2L303.72,454.87a22.48,22.48,0,0,0-26.47,0L146.74,549.75a29.67,29.67,0,0,1-45.64-33.2L151,363.12A22.49,22.49,0,0,0,142.81,338L12.26,243.17A29.68,29.68,0,0,1,29.7,189.46l161.33.08A22.54,22.54,0,0,0,212.43,174Z"/></g></g></svg>